<svg xmlns="http://www.w3.org/2000/svg" version="1.1" width="600px" height="600px" viewBox="0 0 200 200" style="overflow:hidden!important;"><g id="svga-group-wrapper"><g id="svga-group-backs-single"></g><g id="svga-group-humanwrap-move" transform="matrix(1,0,0,1,0,0)"><g id="svga-group-humanwrap"><g id="svga-group-hair-back-move" transform="matrix(1,0,0,1,0,0)"><g id="svga-group-hair-back"></g></g><g id="svga-group-humanbody-back"><path id="SvgjsPath5662" d="m168.2 200-4.6-14.2-34.9-13.4-10.8-9.7-1.4-50.5h-33l-1.4 50.5-10.8 9.7-34.9 13.4-4.6 14.2-3 20h142.4z" fill="#f3d4cf" stroke-width="none" opacity="1" stroke="none"></path><path id="SvgjsPath5663" d="m83.5 112.2-1.4 50.5-10.8 9.7-34.9 13.4-4.6 14.2-3 20H39v-20l1.7-13.3 32.1-12.9 14.1-9.5 2-52.1z" fill="#d4958a" stroke-width="none" opacity="1" stroke="none"></path></g><g id="svga-group-chinshadow-single"><path id="SvgjsPath5876" d="m117.6 152.2-1.1-40h-33l-1.2 42.5c6.5 1.9 14.9 3.4 14.9 3.4s13.5-2.4 19.5-5.1c.1 0 .4-.3.9-.8z" fill="#c5796d" stroke-width="none" opacity="1" stroke="none"></path></g><g id="svga-group-humanbody-front"></g><g id="svga-group-clothes-single"><path id="SvgjsPath9684" d="m173.6 220-2.4-20-3.3-12.7-3.4-1.5-1.6-2.1-16.4-5.8-.9-2.1-4.8-3.6-2.9-9.9-4.9-5-6.7-4.4-8.7-1 .3 10.8-1 9.6-12 10.4-3.2 4-6.6-4-12-10.4-1-9.6.3-10.8-8.7 1-6.7 4.4-4.9 5-2.9 9.9-4.8 3.6-.9 2.1-16.5 5.8-1.5 2.1-3.4 1.5-3.3 12.7-2.4 20z" fill="#09aac5" stroke-width="none" opacity="1"></path><path id="SvgjsPath9685" d="M129.1 168.4c.6-.4.6-6.2.6-6.2l-1.7-7.1s.8 10.4.8 11-13.5 12.3-13.5 12.3l-10 8.3 9.6-5.4s13.7-12.5 14.2-12.9zm13.7 13.3-7.5 3.5-18.1 4.8-7.4 2.8-1.6-1.6.5-2.4-2.3.2s-.3.7-.5 1.3h-.1l-.1-.8-4.2-2.9 3.3 4.1-1.5.6v-.3l-2.4-.4-.7 2.4h.1l-6 5-3.3 9.3 4.7 3.2 3.6-4.9.4-7.2 2.5-4.9-3.8 5-.3 6.5-2.8 3.5-2.6-2.1 2.8-8.5 4.9-4.9 2.1.4-.2 11.1 2.9 11.8 2.3-1.3-4.2-10.9-.4-10.6.1-1.1 1.3-.4.8 2.5-1.6.6 1.7-.4 1.8 5.6 2.1 17.9 3.3-.4-3.9-13.2-.9-5.2-1.8-4.8h.1l.1.4-.1-.4 1.4-.3.8 1.4 1.9 14.1 3.6 1.2 2.1-4.3-3.2-10.7-2.6-2.5 6.6-1.6 17.9-4.4 9.1-4.2 2.5-5.2-.9-2.1-2.3 5.7zm-36 9.5c.6.2 1.3.5 1.3.5l.1-.3 1.3 1.5-1.8.7-1.4-2.2.5-.2zm-.7 3-.9-2.4.2-.1.7 2.5zm.2-.1-.3-2.6.2-.1 1.3 2.3-1.2.4zm5.8 1.8 3.2 10.5-1.8 3.3-2.4-1.1-2-12.8-1.2-1.9 2-.5 2.2 2.5zm18-15.3 10.7-8.3-1.9-5.4s-9.1 11-9.2 11.6c-.2.6-11.9 4.2-11.9 4.2l-9.1 6.2 9.2-4.6 12.2-3.7zm34 7.1-5.8 13.5-1.9 18.5 3.3-18.1 6.2-13.5-1.8-.4zM88 192l-15.9-4.2-10-12.7 1.5-8.2 2.7 5.2 12.5 11.5 14.2 2.2s-11-3.2-11.7-3.2-12-11.2-12-11.2l.2-12 10.5-5.7 1.7-1.7-8 .9-6.7 4.5-5 5-2.9 9.9-4.8 3.6-.9 2.1-16.4 5.7-1.5 2.1-3.4 1.5-3.3 12.7-2.4 20h8.3l1.8-26 2.6-1.2 4.5 6.4s5 20.1 5.2 19.5-4.2-20.1-4.2-20.1l-4.5-6.6 1.4-1.8L57 186l10 4.5 13.9 3 14.9.8L88 192zm-10.7-34.6-1 7.5 6.8 7.4-1-9.6.2-8.9-5 3.6zm44.4 8.7 1.7-9-4.7-4-.5-1.2-.6-.1.3 10.8-1 9.6 4.8-6.1z" fill="#009cb6" stroke-width="none" opacity="1"></path><path id="SvgjsPath9686" d="m146.9 179 15.7 5.4.6 2.7-4.4 10.8 1.6-11.9-14.9-5.4 1.4-1.6zm18 13.2 2.4-3.8 2.4 11.9 1.4 18.5-3.6-18.5-2.6-8.1zM122.4 154l2.8 4-2.4 10-4.8 4.9-13.3 11.9 15-11.4 7.9-7.8-.6-8.6-4.6-3zm-47 4.5-.6 7.9 7.8 9 12.3 8.6 6.5 3.5-8.4-2.7-13-7.6-8.4-10.2 1.9-7.3 1.9-1.2z" fill="#1fbad4" stroke-width="none" opacity="1"></path></g><g id="svga-group-head" transform="matrix(1,0,0,1,0,0)"><g id="svga-group-ears-left-move" transform="matrix(1,0,0,1,0,0)"><g id="svga-group-ears-left"><path id="SvgjsPath5612" d="M61.9 93s-5.5-3-7.7-3.9c0 0-3.9 5.4-5.1 7.2 0 0 3.1 14.7 3.9 17.3l5 6.5 5.4-1.7 4.2-14.2L61.9 93z" fill="#f3d4cf" stroke-width="none" opacity="1" stroke="none"></path><path id="SvgjsPath5613" d="M59.8 104.7c-.2-.4-6-10-6-10l-2.3 7.9 2.6-2.4 1.6 2.9s-.3 5-.2 5.5c0 .5 2.4 4.3 2.4 4.3l1.9-8.2z" fill="#d4958a" stroke-width="none" opacity="1" stroke="none"></path><path id="SvgjsPath5614" d="m59.4 98-5.2-8.9c2.2.9 7.7 1.8 7.7 1.8l5.7 13.3-4.2 14.2-5.4 1.7 3.6-3.4L59.4 98z" fill="#e4b3ab" stroke-width="none" opacity="1" stroke="none"></path></g></g><g id="svga-group-ears-right-move" transform="matrix(1,0,0,1,0,0)"><g id="svga-group-ears-right"><path id="SvgjsPath5615" d="M138.1 93s5.5-3 7.7-3.9c0 0 3.9 5.4 5.1 7.2 0 0-3.1 14.7-3.9 17.3l-5 6.5-5.4-1.7-4.2-14.2 5.7-11.2z" fill="#f3d4cf" stroke-width="none" opacity="1" stroke="none"></path><path id="SvgjsPath5616" d="M140.2 104.7c.2-.4 6-10 6-10l2.3 7.9-2.6-2.4-1.6 2.9s.3 5 .2 5.5c0 .5-2.4 4.3-2.4 4.3l-1.9-8.2z" fill="#d4958a" stroke-width="none" opacity="1" stroke="none"></path><path id="SvgjsPath5617" d="m140.6 98 5.2-8.9c-2.2.9-7.7 1.8-7.7 1.8l-5.7 13.3 4.2 14.2 5.37 1.68-3.57-3.38 2.2-18.7z" fill="#e4b3ab" stroke-width="none" opacity="1" stroke="none"></path></g></g><g id="svga-group-faceshape-wrap"><g id="svga-group-faceshape-single"><path id="SvgjsPath5864" d="M136.8 61c-6.7-11.2-19-18.9-19-18.9-7-1.5-17.8-2.2-17.8-2.2s-10.8.8-17.8 2.2c0 0-12.4 7.6-19 18.9 0 0-5 14-5.2 23.9l.7 14.9c2.2 14.2 5.4 25.3 5.4 25.3 4.9 9.4 16.4 20.8 16.4 20.8 6.1 2.6 19.5 5.1 19.5 5.1s13.5-2.4 19.5-5.1c0 0 11.4-11.4 16.4-20.8 0 0 3.2-11.1 5.4-25.3L142 85c-.3-9.9-5.2-24-5.2-24z" fill="#f3d4cf" stroke-width="none" opacity="1" stroke="none"></path><path id="SvgjsPath5865" d="m91.8 141.8 8.6-2 7.7 2-7.8-4.2z" fill="#ebc3bd" stroke-width="none" opacity="1" stroke="none"></path><path id="SvgjsPath5866" d="M68.1 124c-1.5-5.2-4.9-23.7-4.9-23.7l-.5-16.5c.5-5.2 4.9-22.5 4.9-22.5 2.2-3.5 16-15.3 16-15.3l16.5-3.2 17.7-.7c-7-1.5-17.8-2.2-17.8-2.2s-10.8.8-17.8 2.2c0 0-12.4 7.6-19 18.9 0 0-5 14-5.2 23.9l.7 14.9c2.2 14.2 5.4 25.3 5.4 25.3 4.9 9.4 16.4 20.8 16.4 20.8 6.1 2.6 19.5 5.1 19.5 5.1s-17.3-5.5-18.3-6.5S68.1 124 68.1 124z" fill="#d4958a" stroke-width="none" opacity="1" stroke="none"></path></g></g><g id="svga-group-mouth-single-move" transform="matrix(1,0,0,1,0,0)"><g id="svga-group-mouth-single"><path id="SvgjsPath5596" d="m87.48 130.83 4.42-1.76s6.82-1.63 8.62-1.88c0 0 6.77 1.68 7.62 1.93l6.26 1.67s-5.99 3.77-8.22 5.05l-11.37-.05c.01 0-5.32-3.23-7.33-4.96z" fill="#da7c87" stroke-width="none" opacity="1" transform="translate(0 3)" stroke="none"></path><path id="SvgjsPath5597" d="m84.1 130.34 10.16 1.8 6.29-1.53s6.02 1.62 6.29 1.53c.27-.09 10.88-1.8 10.88-1.8l-11.24 1.17-6.2-1.89-6.29 1.98-9.89-1.26z" fill="#cb5f6c" stroke-width="none" opacity="1" transform="translate(0 3)" stroke="none"></path><path id="SvgjsPath5598" d="m91.65 132.52 3.13 2.11 10.87-.05-10.78-.6z" fill="#f9bfc6" stroke-width="none" opacity="1" transform="translate(0 3)" stroke="none"></path><path id="SvgjsPath5599" d="m99.37 127.71 1.17-.2 6.63 1.71-6.7-1.44z" fill="#f9bfc6" stroke-width="none" opacity="1" transform="translate(0 3)" stroke="none"></path></g></g><g id="svga-group-eyes-left-move" transform="matrix(1,0,0,1,0,0)"><g id="svga-group-eyes-left"><g id="svga-group-eyesback-left"><path id="SvgjsPath6621" d="m91.9 100.1-5.1-4.5-8.8.1-6.8 3.8s5.7 4.2 7 4.8l8.6-.4 5.1-3.8z" fill="#ffffff" stroke-width="none" opacity="1"></path></g><g id="svga-group-eyesiriswrapper-left" transform="matrix(1,0,0,1,0,0)"><g id="svga-group-eyesiriscontrol-left" transform="matrix(1,0,0,1,0,0)"><g id="svga-group-eyesiris-left"><path id="SvgjsPath6919" d="M83.3 94.9h-3.7L77 97.5v3.7l2.6 2.6h3.7l2.6-2.6v-3.7z" fill="#4e60a3" stroke-width="none" opacity="1"></path><path id="SvgjsPath6920" d="M83.3 94.9c-.3 0-.6 0-.9.1-.3 0-.6 0-.9.1-.6 0-1.2.1-1.8.1l.1-.1c-.4.4-.8.9-1.3 1.3l-.7.7c-.3.3-.4.4-.7.6l.1-.1-.1 1.8c0 .6-.1 1.2-.1 1.8v-.1c.2.2.4.4.6.7.2.2.4.4.7.6.4.4.9.8 1.3 1.3h-.1c.6 0 1.2-.1 1.8-.1h1.8l-.2.1 1.3-1.3c.2-.2.4-.4.6-.7l.7-.7-.1.2v-3.6l.1.1c-.4-.4-.8-.9-1.2-1.3-.2-.2-.4-.4-.6-.7l-.4-.8zm0 0c.2.2.4.4.7.6.2.2.4.4.7.6.4.4.9.8 1.4 1.3l.1.1V101.3l-.1.1-.7.7c-.2.2-.4.4-.7.6l-1.3 1.3-.1.1H81.4c-.6 0-1.2 0-1.8-.1h-.1c-.4-.4-.8-.9-1.3-1.3-.2-.2-.4-.4-.6-.7-.2-.2-.4-.4-.7-.6 0-.6 0-1.2-.1-1.8l-.1-1.8v-.1l.1-.1c.2-.2.4-.4.6-.7l.7-.7 1.3-1.3.1-.1h.1c.6 0 1.2 0 1.9.1.3 0 .6 0 .9.1.3-.2.6-.1.9-.1z" fill="#253984" stroke-width="none" opacity="1"></path><path id="SvgjsPath6921" d="m83 98.2.4 1.4-.8 1.3-1.4.3-1.3-.7-.3-1.4.7-1.3 1.4-.4z" fill="#000000" stroke-width="none" opacity="1"></path><path id="SvgjsPath6922" d="m81.2 101.4-1.4-.8-.4-1.6.8-1.4 1.6-.4 1.4.8.4 1.6-.8 1.4-1.6.4zm-1.1-1 1.2.7 1.3-.3.7-1.2-.3-1.3-1.2-.7-1.3.3-.7 1.2.3 1.3z" fill="#253984" stroke-width="none" opacity="1"></path><path id="SvgjsPath6923" d="m79.5 96.2.8-.4 1 2.1-.8.4-1-2.1zm2.2 4.1h.9v.9h-.9v-.9z" fill="#ffffff" stroke-width="none" opacity="1"></path></g></g></g><g id="svga-group-eyesfront-left"><path id="SvgjsPath6629" d="M67.97 94.46v11.11l7.69 7.86h10.87l7.69-7.86V94.46l-7.69-7.86H75.66l-7.69 7.86zm3.25 4.89 6.84-3.78 8.83-.05 5.05 4.54-5.05 3.78-8.62.36c-1.34-.66-7.05-4.85-7.05-4.85z" fill="#f3d4cf" stroke-width="none" opacity="1"></path><path id="SvgjsPath6630" d="m91.94 100.07-5.06-4.54-8.82.05-6.84 3.77-1.53.02-1.72-.76 3.63-.89 6.18-3.06 9.49.07 4.08 3.94z" fill="#d4958a" stroke-width="none" opacity="1"></path><path id="SvgjsPath6631" d="m72.17 100.51-1.61-1.16-1.86-1.34 2.64.92 1.57-.84a24 24 0 0 0-.61-.22l-1.15-1.38 1.95.99.63.16 1.62-.87-.64-.36-.73-1.15 1.38.99.6.19 1.37-.74-.55-.33-.46-.77.84.65.6.21.09-.05 9.11-.19 4.98 4.83-5.24-4.2h-8.66l-6.38 3.66 6.6 4.67 8.52-.52 3.96-2.69-3.77 3.08-8.76.39-.54-.35-.81.76.21-.42.39-.47-1-.65-.45.32-.71.54.35-.52.6-.49-.99-.64-.85.48-.89.64.66-.79.75-.53-1.12-.73-1.01.47-.85.5.58-.71.89-.5-.86-.56-.04-.03-.75.2-1.33.6.89-.71.84-.34z" fill="#000000" stroke-width="none" opacity="1"></path></g></g></g><g id="svga-group-eyes-right-move" transform="matrix(1,0,0,1,0,0)"><g id="svga-group-eyes-right"><g id="svga-group-eyesback-right"><path id="SvgjsPath6622" d="m108.1 100.1 5.1-4.5 8.8.1 6.8 3.8s-5.7 4.2-7 4.8l-8.6-.4-5.1-3.8z" fill="#ffffff" stroke-width="none" opacity="1"></path></g><g id="svga-group-eyesiriswrapper-right" transform="matrix(1,0,0,1,0,0)"><g id="svga-group-eyesiriscontrol-right" transform="matrix(1,0,0,1,0,0)"><g id="svga-group-eyesiris-right"><path id="SvgjsPath6924" d="M120.3 94.9h-3.6l-2.6 2.6v3.7l2.6 2.6h3.6l2.6-2.6v-3.7z" fill="#4e60a3" stroke-width="none" opacity="1"></path><path id="SvgjsPath6925" d="M120.3 94.9c-.3 0-.6 0-.9.1-.3 0-.6 0-.9.1-.6 0-1.2.1-1.8.1l.1-.1c-.4.4-.8.9-1.3 1.3l-.7.7c-.3.3-.4.4-.7.6l.1-.1-.1 1.8c0 .6-.1 1.2-.1 1.8v-.1c.2.2.4.4.6.7.2.2.4.4.7.6.4.4.9.8 1.3 1.3h-.1c.6 0 1.2-.1 1.8-.1h1.8l-.2.1 1.3-1.3c.2-.2.4-.4.6-.7l.7-.7-.1.2v-3.6l.1.1c-.4-.4-.8-.9-1.2-1.3-.2-.2-.4-.4-.6-.7l-.4-.8zm0 0c.2.2.4.4.7.6.2.2.4.4.7.6.4.4.9.8 1.4 1.3l.1.1V101.3l-.1.1-.7.7c-.2.2-.4.4-.7.6l-1.3 1.3-.1.1H118.4c-.6 0-1.2 0-1.8-.1h-.1c-.4-.4-.8-.9-1.3-1.3-.2-.2-.4-.4-.6-.7-.2-.2-.4-.4-.7-.6 0-.6 0-1.2-.1-1.8l-.1-1.8v-.1l.1-.1c.2-.2.4-.4.6-.7l.7-.7 1.3-1.3.1-.1h.1c.6 0 1.2 0 1.9.1.3 0 .6 0 .9.1.3-.2.6-.1.9-.1z" fill="#253984" stroke-width="none" opacity="1"></path><path id="SvgjsPath6926" d="m120 98.2.4 1.4-.8 1.3-1.4.3-1.3-.7-.3-1.4.7-1.3 1.5-.4z" fill="#000000" stroke-width="none" opacity="1"></path><path id="SvgjsPath6927" d="m118.2 101.4-1.4-.8-.4-1.6.8-1.4 1.6-.4 1.4.8.4 1.6-.8 1.4-1.6.4zm-1.1-1 1.2.7 1.3-.3.7-1.2-.3-1.3-1.2-.7-1.3.3-.7 1.2.3 1.3z" fill="#253984" stroke-width="none" opacity="1"></path><path id="SvgjsPath6928" d="m116.5 96.2.8-.4 1 2.1-.8.4-1-2.1zm2.2 4.1h.9v.9h-.9v-.9z" fill="#ffffff" stroke-width="none" opacity="1"></path></g></g></g><g id="svga-group-eyesfront-right"><path id="SvgjsPath6632" d="M124.34 86.6h-10.87l-7.69 7.86v11.11l7.69 7.86h10.87l7.69-7.86V94.46l-7.69-7.86zm-2.6 17.6-8.62-.36-5.05-3.78 5.05-4.54 8.83.05 6.84 3.78c-.01 0-5.72 4.19-7.05 4.85z" fill="#f3d4cf" stroke-width="none" opacity="1"></path><path id="SvgjsPath6635" d="m108.06 100.07 5.06-4.54 8.82.05 6.84 3.77 1.53.02 1.72-.76-3.63-.89-6.18-3.06-9.49.07-4.08 3.94z" fill="#d4958a" stroke-width="none" opacity="1"></path><path id="SvgjsPath6636" d="m127.83 100.51 1.61-1.16 1.86-1.34-2.64.92-1.57-.84a24 24 0 0 1 .61-.22l1.15-1.38-1.95.99-.63.16-1.62-.87.64-.36.73-1.15-1.38.99-.6.19-1.37-.74.55-.33.46-.77-.84.65-.6.21-.09-.05-9.11-.19-4.98 4.83 5.24-4.2h8.66l6.38 3.66-6.6 4.67-8.52-.52-3.96-2.69 3.77 3.08 8.76.39.54-.35.81.76-.21-.42-.39-.47 1-.65.45.32.71.54-.35-.52-.6-.49.99-.64.86.46.89.64-.66-.79-.75-.53 1.12-.73 1.01.47.85.5-.58-.71-.89-.5.86-.56.04-.03.75.2 1.33.6-.89-.71-.85-.32z" fill="#000000" stroke-width="none" opacity="1"></path></g></g></g><g id="svga-group-facehighlight-single"></g><g id="svga-group-eyebrows-left-move" transform="matrix(1,0,0,1,0,0)"><g id="svga-group-eyebrows-left-rotate" transform="matrix(1,1.7453292519943295e-9,-1.7453292519943295e-9,1,1.5158184396568686e-7,-1.3953906830010965e-7)"><g id="svga-group-eyebrows-left"><path id="SvgjsPath7178" d="m91.7 88.1.1 1.9-1.7 1.7-1.8-.7s-5.5-2.8-5.8-2.8S76 88 76 88l-7.3 2.9-1.3-1.1 6.1-5.1 6.6-.9 7.9 2.1 3.7 2.2z" fill="#2a232b" stroke-width="none" opacity="1"></path><path id="SvgjsPath7179" d="m80.1 83.8 1 .3 1.7 3.6-3-3.8.3-.1zm-10.8 4.4 4.1-.6-5.5 1.8 1.4-1.2zm20.3 2.1 1-2.9.9.5-1.9 2.4zm-.4-3.8-.6 3-.4-3.6 1 .6zM73.1 85l2.3.5-3.2.2.9-.7zm4-.8 2 2-3.1-1.9 1.1-.1z" fill="#3a353a" stroke-width="none" opacity="1"></path></g></g></g><g id="svga-group-eyebrows-right-move" transform="matrix(1,0,0,1,0,0)"><g id="svga-group-eyebrows-right-rotate" transform="matrix(1,1.7453292519943295e-9,-1.7453292519943295e-9,1,1.5158184396568686e-7,-2.0952678880803433e-7)"><g id="svga-group-eyebrows-right"><path id="SvgjsPath7180" d="m108.3 88.1-.1 1.9 1.7 1.7 1.8-.7s5.5-2.8 5.8-2.8 6.5-.2 6.5-.2l7.4 2.9 1.3-1.1-6.1-5.1-6.6-.9-7.9 2.1-3.8 2.2z" fill="#2a232b" stroke-width="none" opacity="1"></path><path id="SvgjsPath7181" d="m119.9 83.8-1 .3-1.7 3.6 3-3.8-.3-.1zm10.8 4.4-4.1-.6 5.5 1.8-1.4-1.2zm-20.3 2.1-1-2.9-.9.5 1.9 2.4zm.4-3.8.6 3 .4-3.6-1 .6zm16.1-1.5-2.3.5 3.2.2-.9-.7zm-4-.8-2 2 3.2-1.8-1.2-.2z" fill="#3a353a" stroke-width="none" opacity="1"></path></g></g></g><g id="svga-group-nose-single-move" transform="matrix(1,0,0,1,0,0)"><g id="svga-group-nose-single"><path id="SvgjsPath5891" d="m103.35 108.14-.8-.31 5.16 8.97-1.6 2.28-1.38-.95.22-1.02-1.09.47-1.6 3.15-2.1.08-2.5-.08-1.6-3.15-1.08-.47.21 1.02-1.38.95-1.59-2.28 5.15-8.97.33-10.76-1.13 11.07-5.22 8.81 2.54 3.31 2.17-1.58 1.24 2.76h5.33l1.23-2.76 2.18 1.58 2.54-3.31z" fill="#d4958a" stroke-width="none" opacity="1" transform="translate(0 2)" stroke="none"></path><path id="SvgjsPath5892" d="m97.27 117.21 1.3.61 3.06.08 1.53-.69-.58-2.35-.98-3.1-2.03 4.07z" fill="#fbe5e2" stroke-width="none" opacity="1" transform="translate(0 2)" stroke="none"></path></g></g><g id="svga-group-hair-front"><path id="SvgjsPath9386" d="m143.6 80.4-3.4-16.9-6.7-10.8-7.8-6.2 3.1-2 1.4-9.1-6.4-11.4-16.2-6.6-20.1 1.3-12.8 8.7-1.8 14.4 2.8 3.6L63.8 57l-6.3 15.7-.2 15.8L61 98.6l5.6-20.5 11.5-16.3 21-6.9 23.4 6.1 12.6 16.2 5.5 21.6 3.6-10.1z" fill="#2a232b" stroke-width="none" opacity="1"></path><path id="SvgjsPath9387" d="m115 40.6-.6-.1-12.1-1.9-2.3-10 2.6-7.8 5.1-3.4-6.7 2.9-3.2 8.5 2.1 9.5-.7-.1-1.4.3-.3.1-5 1-4.3-10 3-7.4 4.3-3.5 12.1-1.3-20.1 1.2-12.8 8.7-1.8 14.4 2.8 3.6L63.8 57l-6.3 15.6-.2 15.8L61 98.6l5.7-20.5 11.5-16.3.2-.1-.8-4.2v-11l4-1.2 2.7 9.5 2.1 4.2.6-.2-2.7-11.5-1.6-2.3L97 40.8 95.7 48l.7 7.8 1.1-.4.9-7.2-.3-7.7h.1l11.4.5-2.1 6.4-1.4 9.3h.2l2.1-6.6L110 41l4.2.2-2.9 7.5-1.8 8.8.8.2 3.8-7.1 1-9.4 4.2.2-.3-.2-4-.6zm-32.8 1.2-3.9-11.2 9.8-11 7.2-.8-5.4 2.7-4.2 8.5 5.4 10-8.9 1.8zm58 21.8-5.7 2-6.3 2.7.3.3 6.3-1.7 5.6-2.8-.2-.5zm-2.8-4.6-.4-.6-5.7 2.7-5.8 3.8.3.4 5.5-2.1 6.1-4.2zm-16.2-6.8-2 7.9.9.2 3-4.9 2.4-9.1-.7-.5-3.6 6.4zm-.1-8.3 6.6-9-10.4-13.1 7.2 12.8-3.4 9.3zM106 38.7l8-6.2 1.4-8.5-2.2-3.8 1.1 4.1-1.8 6.2-6.5 8.2z" fill="#221b23" stroke-width="none" opacity="1"></path></g><g id="svga-group-glasses-single-move" transform="matrix(1,0,0,1,0,0)"><g id="svga-group-glasses-single"></g></g></g></g></g><rect id="svga-credit-rect" width="200" height="15" x="0" y="185" fill="#ecf0f1" opacity="0.5" style="display: none;"></rect><text id="svga-credit-text" font-family="Avenir Next, Roboto, Helvetica, Arial, sans-serif" font-size="10px" text-anchor="start" font-weight="400" size="10px" anchor="start" weight="400" fill="#333333" x="33.40789031982422" y="182.3985574245453" style="display: none;"><tspan id="SvgjsTspan5590" dy="13" x="33.40789031982422">Created on AvatarMaker.com</tspan></text></g><defs id="SvgjsDefs5542"></defs></svg>